# xmcd
# 
# Track frame offsets:
#     150
#     107161
#     154338
#     202266
# 
# Disc length: 3998
# 
# Revision: 0
# Processed by: cddbd v1.5.2PL0 Copyright (c) Steve Scherf et al.
# Submitted via: BonkEnc v1.0.8
# 
DISCID=360f9c04
DTITLE=Gerald Paden - Sacrifical System
DYEAR=2004
DGENRE=Speech
TTITLE0=Disk 07 - The Ritual of the Burnt Offering - 01
TTITLE1=Disk 07 - The Ritual of the Burnt Offering - 02
TTITLE2=Disk 07 - The Ritual of the Burnt Offering - 03
TTITLE3=Disk 07 - The Ritual of the Burnt Offering - 04
EXTD=
EXTT0=
EXTT1=
EXTT2=
EXTT3=
PLAYORDER=
